<svg width="11" height="13" viewBox="0 0 11 13" fill="none" xmlns="http://www.w3.org/2000/svg">
<path d="M11 6.5C10.9984 6.22349 10.9274 5.95076 10.7921 5.70159C10.6568 5.45242 10.4606 5.23307 10.2178 5.05945L3.98444 0.499501C3.60918 0.233047 3.157 0.0653704 2.67944 0.0155805C2.20187 -0.0342094 1.71813 0.0358894 1.28333 0.217889C0.905454 0.365497 0.583505 0.606376 0.355939 0.911758C0.128372 1.21714 0.00480714 1.57412 8.48025e-08 1.94005L4.83446e-07 11.0599C0.00480757 11.4259 0.128373 11.7829 0.355939 12.0882C0.583506 12.3936 0.905455 12.6345 1.28333 12.7821C1.71813 12.9641 2.20187 13.0342 2.67944 12.9844C3.157 12.9346 3.60918 12.767 3.98444 12.5005L10.2178 7.94055C10.4606 7.76693 10.6568 7.54758 10.7921 7.29841C10.9274 7.04924 10.9984 6.77651 11 6.5Z" fill="white"/>
</svg>
