<svg width="11" height="13" viewBox="0 0 11 13" fill="none" xmlns="http://www.w3.org/2000/svg">
<path d="M6.6955e-07 6.5C0.00157424 6.22349 0.0725858 5.95076 0.207884 5.70159C0.343182 5.45242 0.539373 5.23307 0.782223 5.05945L7.01556 0.499501C7.39082 0.233047 7.843 0.0653704 8.32056 0.0155805C8.79813 -0.0342094 9.28187 0.0358894 9.71667 0.217889C10.0945 0.365497 10.4165 0.606376 10.6441 0.911758C10.8716 1.21714 10.9952 1.57412 11 1.94005L11 11.0599C10.9952 11.4259 10.8716 11.7829 10.6441 12.0882C10.4165 12.3936 10.0945 12.6345 9.71667 12.7821C9.28187 12.9641 8.79813 13.0342 8.32056 12.9844C7.843 12.9346 7.39082 12.767 7.01556 12.5005L0.782222 7.94055C0.539373 7.76693 0.343182 7.54758 0.207884 7.29841C0.0725858 7.04924 0.00157422 6.77651 6.6955e-07 6.5Z" fill="white"/>
</svg>
